<svg width="40" height="40" viewBox="0 0 40 40" fill="none" xmlns="http://www.w3.org/2000/svg">
    <circle opacity="0.1" cx="20" cy="20" r="20" fill="url(#paint0_linear_191_1)"/>
    <path d="M25.5501 22.1413C24.9456 22.0112 24.4674 22.2919 24.0439 22.537C23.6102 22.7896 22.7856 23.4586 22.313 23.2874C19.893 22.291 17.6169 20.1728 16.6317 17.7431C16.458 17.2604 17.1238 16.4305 17.3746 15.9917C17.6179 15.567 17.8927 15.0842 17.7674 14.4752C17.6541 13.9278 16.1887 12.0632 15.6705 11.5534C15.3288 11.2166 14.9787 11.0313 14.6193 11.0014C13.2682 10.9434 11.7592 12.7462 11.4945 13.1775C10.8315 14.0972 10.8352 15.3209 11.5057 16.8047C13.1215 20.7903 19.2327 26.8051 23.2332 28.4817C23.9715 28.8269 24.6466 29 25.253 29C25.8464 29 26.3748 28.8344 26.8289 28.506C27.1715 28.3086 29.0483 26.7247 28.999 25.3372C28.9693 24.9836 28.7845 24.6299 28.4521 24.2875C27.946 23.7645 26.0934 22.2554 25.5501 22.1413Z" fill="url(#paint1_linear_191_1)"/>
    <defs>
        <linearGradient id="paint0_linear_191_1" x1="-5.67221e-08" y1="-2.45614" x2="46.1762" y2="4.69819" gradientUnits="userSpaceOnUse">
            <stop stop-color="#53E88B"/>
            <stop offset="1" stop-color="#15BE77"/>
        </linearGradient>
        <linearGradient id="paint1_linear_191_1" x1="11" y1="9.89474" x2="31.7793" y2="13.1142" gradientUnits="userSpaceOnUse">
            <stop stop-color="#53E88B"/>
            <stop offset="1" stop-color="#15BE77"/>
        </linearGradient>
    </defs>
</svg>
