<svg width="34" height="35" viewBox="0 0 34 35" fill="none" xmlns="http://www.w3.org/2000/svg">
    <rect opacity="0.1" y="0.5" width="34" height="34" rx="17" fill="#FF1D1D"/>
    <path d="M22.8933 12.5733C22.5528 12.2327 22.1485 11.9624 21.7036 11.7781C21.2586 11.5937 20.7817 11.4988 20.3 11.4988C19.8183 11.4988 19.3414 11.5937 18.8964 11.7781C18.4515 11.9624 18.0472 12.2327 17.7067 12.5733L17 13.28L16.2933 12.5733C15.6055 11.8855 14.6727 11.4991 13.7 11.4991C12.7273 11.4991 11.7945 11.8855 11.1067 12.5733C10.4189 13.2611 10.0325 14.194 10.0325 15.1667C10.0325 16.1394 10.4189 17.0722 11.1067 17.76L11.8133 18.4667L17 23.6533L22.1867 18.4667L22.8933 17.76C23.234 17.4195 23.5042 17.0152 23.6886 16.5702C23.873 16.1253 23.9679 15.6483 23.9679 15.1667C23.9679 14.685 23.873 14.2081 23.6886 13.7631C23.5042 13.3181 23.234 12.9138 22.8933 12.5733Z" fill="#FF1D1D" stroke="#FF1D1D" stroke-width="2" stroke-linecap="round" stroke-linejoin="round"/>
</svg>
